<?xml version="1.0" encoding="utf-8"?>
<!-- Generator: Adobe Illustrator 19.2.1, SVG Export Plug-In . SVG Version: 6.00 Build 0)  -->
<svg version="1.1" id="layer" xmlns="http://www.w3.org/2000/svg" xmlns:xlink="http://www.w3.org/1999/xlink" x="0px" y="0px"
	 viewBox="0 0 652 652" style="enable-background:new 0 0 652 652;" xml:space="preserve">
<style type="text/css">
	.st0{fill:#E23744;}
	.st1{fill:#FFFFFF;}
</style>
<g>
	<path id="Rectangle-Copy-10" class="st0" d="M82.3,71h475.3c6.8,0,12.3,5.5,12.3,12.3v475.3c0,6.8-5.5,12.3-12.3,12.3H82.3
		c-6.8,0-12.3-5.5-12.3-12.3V83.3C70,76.5,75.5,71,82.3,71z"/>
	<g id="Group" transform="translate(31.000000, 221.000000)">
		<path id="zomato-copy-10" class="st1" d="M136.6,75.4l-0.4,12.7l-33.1,36c13.8,0,22.6-0.1,27.6-0.4c-1.5,6.8-2.7,12.4-3.9,20.8
			c-6.6-0.6-17-0.7-27.4-0.7c-11.6,0-21.7,0.1-29.8,0.7l0.3-12.8l33.1-35.8c-14.5,0-19.8,0.1-25.8,0.3c1.3-6.4,2.3-13.5,3.2-20.6
			C91,75.8,95.2,76,108.8,76C121.5,76,128.6,75.8,136.6,75.4z M160.1,115.2c0,8.5,2.8,12.8,7.6,12.8c6.4,0,11.4-10.3,11.4-22.9
			c0-8.6-2.8-12.8-7.4-12.8C165.3,92.3,160.1,102.5,160.1,115.2z M203.6,104.1c0,23.1-16.3,42.4-38,42.4
			c-19.4,0-29.4-13.2-29.4-30.5c0-23,16.5-42.2,38-42.2C193.9,73.8,203.6,87,203.6,104.1z M463.9,115.2c0,8.5,2.8,12.8,7.6,12.8
			c6.4,0,11.4-10.3,11.4-22.9c0-8.6-2.8-12.8-7.4-12.8C469.1,92.3,463.9,102.5,463.9,115.2z M508.2,103.7
			c0,23.4-16.6,42.9-38.5,42.9c-19.7,0-29.7-13.4-29.7-30.9c0-23.3,16.7-42.8,38.5-42.8C498.4,72.9,508.2,86.3,508.2,103.7z
			 M315.3,96.2c1.7-11.9,0.8-22.6-12.4-22.6c-9.6,0-19.9,8.1-27.2,21.6c1.6-11.2,0.7-21.6-12.4-21.6c-9.8,0-20.5,8.5-27.8,22.6
			c1.9-9.2,1.5-19.7,0.9-21.9c-7.6,1.3-14.2,2-23.5,2.2c0.3,6.4-0.1,14.8-1.3,22.7l-3.1,20.9c-1.2,8.2-2.5,17.7-3.9,23.7h24.7
			c0.1-3.6,1.1-9.3,1.7-14.4l2.1-14.4c1.7-9.3,9.2-20.4,14.9-20.4c3.3,0,3.2,3.2,2.3,9.2l-2.4,16.2c-1.2,8.2-2.5,17.7-3.9,23.7h25
			c0.1-3.6,0.9-9.3,1.6-14.4l2.1-14.4c1.7-9.3,9.2-20.4,14.9-20.4c3.3,0,3.2,3.1,2.7,7.2l-6,41.8h22.8L315.3,96.2z M434.6,124.2
			l-2.7,16.5c-4.1,2.2-11.8,5.4-20.7,5.4c-15.1,0-18.2-8.1-15.8-25.2l3.9-27.6h-7.5l2.1-17.9l8.1-0.4l3.1-13l23-8.6L425.2,75H441
			c-0.5,2.2-2.4,14.5-2.9,18.3h-15.4l-3.5,25.5c-0.9,6.6-0.4,8.9,4.1,8.9C426.7,127.7,431.6,125.7,434.6,124.2z"/>
		<path id="a-copy-7" class="st1" d="M347.5,132c8.4-1,14.1-9.1,15.5-17.1l0.2-2.2c-3.6-0.8-8.8-1.4-13.8-0.8
			c-4.8,0.6-8.8,2.6-10.9,5.5c-1.6,2.1-2.4,4.6-2.1,7.5C336.9,129.3,341.8,132.7,347.5,132z M340.3,144.8
			c-11.8,1.5-19.6-3.2-21.9-13.9c-1.5-6.7,0.6-14.3,4.1-18.9c4.8-6,12.5-9.8,22-11c7.6-0.9,14-0.5,20,0.7l0.3-1
			c0.2-1.6,0.3-3.3,0.1-5.3c-0.6-5-4.6-8.1-14.4-6.9c-6.6,0.8-13,3.2-17.9,5.9l-4.8-14.4c6.6-3.8,15-6.7,24.6-7.9
			c18.3-2.3,31.2,3.6,32.8,17c0.4,3.6,0.5,7.4,0,10.8c-2.4,16.6-3.9,29.1-4.5,37.5c-0.1,1.3-0.1,3.5,0,6.7l-22.7,0
			c0.5-1.3,0.9-3.1,1.3-5.3c0.3-1.5,0.4-3.3,0.6-5.6C355.2,139.8,348.6,143.8,340.3,144.8z"/>
	</g>
</g>
</svg>
